# xmcd
# 
# Track frame offsets:
#     150
#     14211
#     31269
#     52433
#     76713
#     100005
#     120073
#     134597
#     155082
#     172793
# 
# Disc length: 2571
# 
# Revision: 4
# Processed by: cddbd v1.5.2PL0 Copyright (c) Steve Scherf et al.
# Submitted via: fre:ac v1.0.27
# 
DISCID=790a090a
DTITLE=John Coinman - Songs From The Modern West
DYEAR=2005
DGENRE=Country-influenced Rock
TTITLE0=Once This Was The Promise Land
TTITLE1=Superman
TTITLE2=Days Like These
TTITLE3=The Hero
TTITLE4=Long Hot Night
TTITLE5=By The 'U' In Buick
TTITLE6=Find That Girl
TTITLE7=Down In Nogales
TTITLE8=Every Intention
TTITLE9=Never Losing You
EXTD=
EXTT0=
EXTT1=
EXTT2=
EXTT3=
EXTT4=
EXTT5=
EXTT6=
EXTT7=
EXTT8=
EXTT9=
PLAYORDER=
